<svg fill="#FD7014" xmlns="http://www.w3.org/2000/svg" viewBox="0 0 100 100" width="75px" height="75px"><switch><g><path d="M50 36.7c1.6 0 3.1-.6 4.2-1.7l22.3-22.3c2.3-2.3 2.3-6.1 0-8.4-2.3-2.3-6.1-2.3-8.4 0l-18 18-18-18C29.8 2 26 2 23.7 4.3 22.5 5.5 22 7 22 8.5s.6 3.1 1.7 4.2L45.8 35c1.1 1.1 2.6 1.7 4.2 1.7z"/><path d="M54.2 65.4l22.3-22.3c2.3-2.3 2.3-6.1 0-8.4-2.3-2.3-6.1-2.3-8.4 0l-18 18-18-18c-2.3-2.3-6.1-2.3-8.4 0-1.2 1.2-1.7 2.7-1.7 4.2s.6 3.1 1.7 4.2L46 65.4c2.1 2.3 5.9 2.3 8.2 0z"/><path d="M54.2 95.8l22.3-22.3c2.3-2.3 2.3-6.1 0-8.4-2.3-2.3-6.1-2.3-8.4 0l-18 18L32 65c-2.3-2.3-6.1-2.3-8.4 0-1.2 1.2-1.7 2.7-1.7 4.2s.6 3.1 1.7 4.2l22.3 22.3c2.2 2.4 6 2.4 8.3.1z"/></g></switch></svg>