<svg width="205" height="166" viewBox="0 0 205 166" fill="none" xmlns="http://www.w3.org/2000/svg">
<g id="logo" opacity="0.5">
<path id="Fill 1" fill-rule="evenodd" clip-rule="evenodd" d="M108.49 0.580994C102.424 0.580994 96.6058 2.99068 92.316 7.28056C88.0264 11.5701 85.6164 17.3881 85.6164 23.4547C85.6164 44.845 85.6164 73.5177 85.6164 73.5177C85.6164 92.7938 71.5501 106.34 55.1392 106.34C38.7286 106.34 24.662 92.7938 24.662 73.5177C24.662 73.5177 24.662 28.3263 24.662 9.08782C24.662 7.5682 23.7749 6.18833 22.3924 5.55775C21.0094 4.92718 19.386 5.1619 18.2385 6.15814C15.4055 8.61836 12.0271 11.5514 8.95253 14.2213C3.28923 19.1383 0.146872 26.3484 0.399916 33.8444C0.913467 49.0579 1.73908 73.5177 1.73908 73.5177C1.73908 106.34 24.662 128.22 55.1392 128.22C85.6164 128.22 108.54 106.34 108.54 73.5177V0.580994C108.54 0.580994 108.523 0.580994 108.49 0.580994Z" fill="#EEEEEE"/>
<path id="Fill 2" fill-rule="evenodd" clip-rule="evenodd" d="M107.554 146.644C109.485 144.527 110.556 141.766 110.556 138.9C110.556 124.705 110.556 81.4547 110.556 81.4547C110.556 60.6131 126.239 45.9678 144.535 45.9678C162.832 45.9678 178.515 60.6131 178.515 81.4547C178.515 81.4547 178.515 137.702 178.515 161.308C178.515 163.02 179.547 164.563 181.129 165.217C182.711 165.87 184.531 165.505 185.739 164.293C190.545 159.468 196.652 153.337 200.462 149.512C202.774 147.191 204.072 144.049 204.072 140.773C204.072 125.528 204.072 81.4547 204.072 81.4547C204.072 45.9678 178.515 22.3102 144.535 22.3102C110.556 22.3102 84.9987 45.9678 84.9987 81.4547C84.9987 81.4547 85.2223 135.791 85.3206 159.788C85.3281 161.583 86.4352 163.19 88.1099 163.835C89.7845 164.48 91.6837 164.033 92.8933 162.707C97.8083 157.321 103.959 150.582 107.554 146.644Z" fill="#EEEEEE"/>
</g>
</svg>
